<svg width="1728" height="1217" viewBox="0 0 1728 1217" fill="none" xmlns="http://www.w3.org/2000/svg">
<g clip-path="url(#clip0_167_179)">
<rect width="1728" height="1217" fill="#121214"/>
<g opacity="0.2" filter="url(#filter0_f_167_179)">
<ellipse cx="864" cy="519.139" rx="864" ry="315.345" fill="#0D79F8" fill-opacity="0.9"/>
</g>
<path d="M83.9711 904C85.898 904 87.3566 904.568 88.3471 905.704C89.3555 906.827 89.8598 908.463 89.8598 910.61C89.8598 912.757 89.3555 914.398 88.3471 915.534C87.3566 916.67 85.898 917.238 83.9711 917.238C82.0623 917.238 80.6037 916.67 79.5952 915.534C78.5868 914.398 78.0825 912.757 78.0825 910.61C78.0825 908.475 78.5868 906.84 79.5952 905.704C80.6037 904.568 82.0623 904 83.9711 904ZM80.0004 910.61C80.0004 912.133 80.1985 913.325 80.5947 914.186L86.5913 905.891C85.961 905.304 85.0876 905.011 83.9711 905.011C82.7286 905.011 81.7562 905.473 81.0539 906.397C80.3515 907.308 80.0004 908.712 80.0004 910.61ZM83.9711 916.208C85.2317 916.208 86.2131 915.753 86.9155 914.841C87.6178 913.918 87.9689 912.507 87.9689 910.61C87.9689 908.999 87.7438 907.751 87.2936 906.865L81.297 915.235C81.9453 915.884 82.8366 916.208 83.9711 916.208Z" fill="url(#paint0_linear_167_179)" fill-opacity="0.6"/>
<path d="M85.5919 937.458H89.5626V938.45H79.2711V937.458H83.8631V926.935L79.4872 928.751L78.7308 927.908L84.1332 925.587H85.5919V937.458Z" fill="url(#paint1_linear_167_179)" fill-opacity="0.6"/>
<path d="M83.9711 946.799C85.898 946.799 87.3566 947.367 88.3471 948.503C89.3555 949.626 89.8598 951.261 89.8598 953.409C89.8598 955.556 89.3555 957.197 88.3471 958.333C87.3566 959.469 85.898 960.037 83.9711 960.037C82.0623 960.037 80.6037 959.469 79.5952 958.333C78.5868 957.197 78.0825 955.556 78.0825 953.409C78.0825 951.274 78.5868 949.639 79.5952 948.503C80.6037 947.367 82.0623 946.799 83.9711 946.799ZM80.0004 953.409C80.0004 954.931 80.1985 956.124 80.5947 956.985L86.5913 948.69C85.961 948.103 85.0876 947.81 83.9711 947.81C82.7286 947.81 81.7562 948.272 81.0539 949.196C80.3515 950.107 80.0004 951.511 80.0004 953.409ZM83.9711 959.007C85.2317 959.007 86.2131 958.552 86.9155 957.64C87.6178 956.717 87.9689 955.306 87.9689 953.409C87.9689 951.798 87.7438 950.55 87.2936 949.664L81.297 958.033C81.9453 958.683 82.8366 959.007 83.9711 959.007Z" fill="url(#paint2_linear_167_179)" fill-opacity="0.6"/>
<path d="M85.5919 980.257H89.5626V981.249H79.2711V980.257H83.8631V969.734L79.4872 971.55L78.7308 970.707L84.1332 968.385H85.5919V980.257Z" fill="url(#paint3_linear_167_179)" fill-opacity="0.6"/>
<path d="M85.5919 1001.66H89.5626V1002.65H79.2711V1001.66H83.8631V991.133L79.4872 992.949L78.7308 992.107L84.1332 989.785H85.5919V1001.66Z" fill="url(#paint4_linear_167_179)" fill-opacity="0.6"/>
<path d="M83.9711 1011C85.898 1011 87.3566 1011.56 88.3471 1012.7C89.3555 1013.82 89.8598 1015.46 89.8598 1017.61C89.8598 1019.75 89.3555 1021.4 88.3471 1022.53C87.3566 1023.67 85.898 1024.24 83.9711 1024.24C82.0623 1024.24 80.6037 1023.67 79.5952 1022.53C78.5868 1021.4 78.0825 1019.75 78.0825 1017.61C78.0825 1015.47 78.5868 1013.84 79.5952 1012.7C80.6037 1011.56 82.0623 1011 83.9711 1011ZM80.0004 1017.61C80.0004 1019.13 80.1985 1020.32 80.5947 1021.18L86.5913 1012.89C85.961 1012.3 85.0876 1012.01 83.9711 1012.01C82.7286 1012.01 81.7562 1012.47 81.0539 1013.39C80.3515 1014.3 80.0004 1015.71 80.0004 1017.61ZM83.9711 1023.21C85.2317 1023.21 86.2131 1022.75 86.9155 1021.84C87.6178 1020.91 87.9689 1019.5 87.9689 1017.61C87.9689 1016 87.7438 1014.75 87.2936 1013.86L81.297 1022.23C81.9453 1022.88 82.8366 1023.21 83.9711 1023.21Z" fill="url(#paint5_linear_167_179)" fill-opacity="0.6"/>
<path d="M85.5919 1044.45H89.5626V1045.45H79.2711V1044.45H83.8631V1033.93L79.4872 1035.75L78.7308 1034.91L84.1332 1032.58H85.5919V1044.45Z" fill="url(#paint6_linear_167_179)" fill-opacity="0.6"/>
<path d="M83.9711 1053.8C85.898 1053.8 87.3566 1054.36 88.3471 1055.5C89.3555 1056.62 89.8598 1058.26 89.8598 1060.41C89.8598 1062.55 89.3555 1064.19 88.3471 1065.33C87.3566 1066.47 85.898 1067.03 83.9711 1067.03C82.0623 1067.03 80.6037 1066.47 79.5952 1065.33C78.5868 1064.19 78.0825 1062.55 78.0825 1060.41C78.0825 1058.27 78.5868 1056.64 79.5952 1055.5C80.6037 1054.36 82.0623 1053.8 83.9711 1053.8ZM80.0004 1060.41C80.0004 1061.93 80.1985 1063.12 80.5947 1063.98L86.5913 1055.69C85.961 1055.1 85.0876 1054.81 83.9711 1054.81C82.7286 1054.81 81.7562 1055.27 81.0539 1056.19C80.3515 1057.1 80.0004 1058.51 80.0004 1060.41ZM83.9711 1066C85.2317 1066 86.2131 1065.55 86.9155 1064.64C87.6178 1063.71 87.9689 1062.3 87.9689 1060.41C87.9689 1058.8 87.7438 1057.55 87.2936 1056.66L81.297 1065.03C81.9453 1065.68 82.8366 1066 83.9711 1066Z" fill="url(#paint7_linear_167_179)" fill-opacity="0.6"/>
<path d="M83.9711 1075.2C85.898 1075.2 87.3566 1075.76 88.3471 1076.9C89.3555 1078.02 89.8598 1079.66 89.8598 1081.8C89.8598 1083.95 89.3555 1085.59 88.3471 1086.73C87.3566 1087.87 85.898 1088.43 83.9711 1088.43C82.0623 1088.43 80.6037 1087.87 79.5952 1086.73C78.5868 1085.59 78.0825 1083.95 78.0825 1081.8C78.0825 1079.67 78.5868 1078.04 79.5952 1076.9C80.6037 1075.76 82.0623 1075.2 83.9711 1075.2ZM80.0004 1081.8C80.0004 1083.33 80.1985 1084.52 80.5947 1085.38L86.5913 1077.09C85.961 1076.5 85.0876 1076.21 83.9711 1076.21C82.7286 1076.21 81.7562 1076.67 81.0539 1077.59C80.3515 1078.5 80.0004 1079.91 80.0004 1081.8ZM83.9711 1087.4C85.2317 1087.4 86.2131 1086.95 86.9155 1086.04C87.6178 1085.11 87.9689 1083.7 87.9689 1081.8C87.9689 1080.19 87.7438 1078.95 87.2936 1078.06L81.297 1086.43C81.9453 1087.08 82.8366 1087.4 83.9711 1087.4Z" fill="url(#paint8_linear_167_179)" fill-opacity="0.6"/>
<path d="M85.5919 1108.65H89.5626V1109.65H79.2711V1108.65H83.8631V1098.13L79.4872 1099.95L78.7308 1099.1L84.1332 1096.78H85.5919V1108.65Z" fill="url(#paint9_linear_167_179)" fill-opacity="0.6"/>
<path d="M83.9711 1117.99C85.898 1117.99 87.3566 1118.56 88.3471 1119.7C89.3555 1120.82 89.8598 1122.46 89.8598 1124.6C89.8598 1126.75 89.3555 1128.39 88.3471 1129.53C87.3566 1130.66 85.898 1131.23 83.9711 1131.23C82.0623 1131.23 80.6037 1130.66 79.5952 1129.53C78.5868 1128.39 78.0825 1126.75 78.0825 1124.6C78.0825 1122.47 78.5868 1120.83 79.5952 1119.7C80.6037 1118.56 82.0623 1117.99 83.9711 1117.99ZM80.0004 1124.6C80.0004 1126.13 80.1985 1127.32 80.5947 1128.18L86.5913 1119.89C85.961 1119.3 85.0876 1119.01 83.9711 1119.01C82.7286 1119.01 81.7562 1119.47 81.0539 1120.39C80.3515 1121.3 80.0004 1122.71 80.0004 1124.6ZM83.9711 1130.2C85.2317 1130.2 86.2131 1129.75 86.9155 1128.84C87.6178 1127.91 87.9689 1126.5 87.9689 1124.6C87.9689 1122.99 87.7438 1121.75 87.2936 1120.86L81.297 1129.23C81.9453 1129.88 82.8366 1130.2 83.9711 1130.2Z" fill="url(#paint10_linear_167_179)" fill-opacity="0.6"/>
<path d="M85.5919 1151.45H89.5626V1152.44H79.2711V1151.45H83.8631V1140.93L79.4872 1142.75L78.7308 1141.9L84.1332 1139.58H85.5919V1151.45Z" fill="url(#paint11_linear_167_179)" fill-opacity="0.6"/>
<path d="M85.5919 1172.85H89.5626V1173.84H79.2711V1172.85H83.8631V1162.33L79.4872 1164.14L78.7308 1163.3L84.1332 1160.98H85.5919V1172.85Z" fill="url(#paint12_linear_167_179)" fill-opacity="0.6"/>
<path d="M134.136 946.799C136.063 946.799 137.522 947.367 138.512 948.503C139.521 949.626 140.025 951.261 140.025 953.409C140.025 955.556 139.521 957.197 138.512 958.333C137.522 959.469 136.063 960.037 134.136 960.037C132.227 960.037 130.769 959.469 129.76 958.333C128.752 957.197 128.248 955.556 128.248 953.409C128.248 951.274 128.752 949.639 129.76 948.503C130.769 947.367 132.227 946.799 134.136 946.799ZM130.165 953.409C130.165 954.931 130.364 956.124 130.76 956.985L136.756 948.69C136.126 948.103 135.253 947.81 134.136 947.81C132.894 947.81 131.921 948.272 131.219 949.196C130.517 950.107 130.165 951.511 130.165 953.409ZM134.136 959.007C135.397 959.007 136.378 958.552 137.081 957.64C137.783 956.717 138.134 955.306 138.134 953.409C138.134 951.798 137.909 950.55 137.459 949.664L131.462 958.033C132.11 958.683 133.002 959.007 134.136 959.007Z" fill="url(#paint13_linear_167_179)" fill-opacity="0.6"/>
<path d="M135.757 980.257H139.728V981.249H129.436V980.257H134.028V969.734L129.652 971.55L128.896 970.707L134.298 968.385H135.757V980.257Z" fill="url(#paint14_linear_167_179)" fill-opacity="0.6"/>
<path d="M134.136 989.598C136.063 989.598 137.522 990.166 138.512 991.302C139.521 992.425 140.025 994.06 140.025 996.207C140.025 998.354 139.521 999.996 138.512 1001.13C137.522 1002.27 136.063 1002.84 134.136 1002.84C132.227 1002.84 130.769 1002.27 129.76 1001.13C128.752 999.996 128.248 998.354 128.248 996.207C128.248 994.073 128.752 992.437 129.76 991.302C130.769 990.166 132.227 989.598 134.136 989.598ZM130.165 996.207C130.165 997.73 130.364 998.922 130.76 999.784L136.756 991.489C136.126 990.902 135.253 990.609 134.136 990.609C132.894 990.609 131.921 991.071 131.219 991.994C130.517 992.906 130.165 994.31 130.165 996.207ZM134.136 1001.81C135.397 1001.81 136.378 1001.35 137.081 1000.44C137.783 999.515 138.134 998.105 138.134 996.207C138.134 994.597 137.909 993.349 137.459 992.462L131.462 1000.83C132.11 1001.48 133.002 1001.81 134.136 1001.81Z" fill="url(#paint15_linear_167_179)" fill-opacity="0.6"/>
<path d="M134.136 1011C136.063 1011 137.522 1011.56 138.512 1012.7C139.521 1013.82 140.025 1015.46 140.025 1017.61C140.025 1019.75 139.521 1021.4 138.512 1022.53C137.522 1023.67 136.063 1024.24 134.136 1024.24C132.227 1024.24 130.769 1023.67 129.76 1022.53C128.752 1021.4 128.248 1019.75 128.248 1017.61C128.248 1015.47 128.752 1013.84 129.76 1012.7C130.769 1011.56 132.227 1011 134.136 1011ZM130.165 1017.61C130.165 1019.13 130.364 1020.32 130.76 1021.18L136.756 1012.89C136.126 1012.3 135.253 1012.01 134.136 1012.01C132.894 1012.01 131.921 1012.47 131.219 1013.39C130.517 1014.3 130.165 1015.71 130.165 1017.61ZM134.136 1023.21C135.397 1023.21 136.378 1022.75 137.081 1021.84C137.783 1020.91 138.134 1019.5 138.134 1017.61C138.134 1016 137.909 1014.75 137.459 1013.86L131.462 1022.23C132.11 1022.88 133.002 1023.21 134.136 1023.21Z" fill="url(#paint16_linear_167_179)" fill-opacity="0.6"/>
<path d="M135.757 1044.45H139.728V1045.45H129.436V1044.45H134.028V1033.93L129.652 1035.75L128.896 1034.91L134.298 1032.58H135.757V1044.45Z" fill="url(#paint17_linear_167_179)" fill-opacity="0.6"/>
<path d="M134.136 1053.8C136.063 1053.8 137.522 1054.36 138.512 1055.5C139.521 1056.62 140.025 1058.26 140.025 1060.41C140.025 1062.55 139.521 1064.19 138.512 1065.33C137.522 1066.47 136.063 1067.03 134.136 1067.03C132.227 1067.03 130.769 1066.47 129.76 1065.33C128.752 1064.19 128.248 1062.55 128.248 1060.41C128.248 1058.27 128.752 1056.64 129.76 1055.5C130.769 1054.36 132.227 1053.8 134.136 1053.8ZM130.165 1060.41C130.165 1061.93 130.364 1063.12 130.76 1063.98L136.756 1055.69C136.126 1055.1 135.253 1054.81 134.136 1054.81C132.894 1054.81 131.921 1055.27 131.219 1056.19C130.517 1057.1 130.165 1058.51 130.165 1060.41ZM134.136 1066C135.397 1066 136.378 1065.55 137.081 1064.64C137.783 1063.71 138.134 1062.3 138.134 1060.41C138.134 1058.8 137.909 1057.55 137.459 1056.66L131.462 1065.03C132.11 1065.68 133.002 1066 134.136 1066Z" fill="url(#paint18_linear_167_179)" fill-opacity="0.6"/>
<path d="M135.757 1087.25H139.728V1088.25H129.436V1087.25H134.028V1076.73L129.652 1078.55L128.896 1077.7L134.298 1075.38H135.757V1087.25Z" fill="url(#paint19_linear_167_179)" fill-opacity="0.6"/>
<path d="M134.136 1096.59C136.063 1096.59 137.522 1097.16 138.512 1098.3C139.521 1099.42 140.025 1101.06 140.025 1103.2C140.025 1105.35 139.521 1106.99 138.512 1108.13C137.522 1109.26 136.063 1109.83 134.136 1109.83C132.227 1109.83 130.769 1109.26 129.76 1108.13C128.752 1106.99 128.248 1105.35 128.248 1103.2C128.248 1101.07 128.752 1099.43 129.76 1098.3C130.769 1097.16 132.227 1096.59 134.136 1096.59ZM130.165 1103.2C130.165 1104.73 130.364 1105.92 130.76 1106.78L136.756 1098.49C136.126 1097.9 135.253 1097.61 134.136 1097.61C132.894 1097.61 131.921 1098.07 131.219 1098.99C130.517 1099.9 130.165 1101.31 130.165 1103.2ZM134.136 1108.8C135.397 1108.8 136.378 1108.35 137.081 1107.44C137.783 1106.51 138.134 1105.1 138.134 1103.2C138.134 1101.59 137.909 1100.35 137.459 1099.46L131.462 1107.83C132.11 1108.48 133.002 1108.8 134.136 1108.8Z" fill="url(#paint20_linear_167_179)" fill-opacity="0.6"/>
<path d="M134.136 1117.99C136.063 1117.99 137.522 1118.56 138.512 1119.7C139.521 1120.82 140.025 1122.46 140.025 1124.6C140.025 1126.75 139.521 1128.39 138.512 1129.53C137.522 1130.66 136.063 1131.23 134.136 1131.23C132.227 1131.23 130.769 1130.66 129.76 1129.53C128.752 1128.39 128.248 1126.75 128.248 1124.6C128.248 1122.47 128.752 1120.83 129.76 1119.7C130.769 1118.56 132.227 1117.99 134.136 1117.99ZM130.165 1124.6C130.165 1126.13 130.364 1127.32 130.76 1128.18L136.756 1119.89C136.126 1119.3 135.253 1119.01 134.136 1119.01C132.894 1119.01 131.921 1119.47 131.219 1120.39C130.517 1121.3 130.165 1122.71 130.165 1124.6ZM134.136 1130.2C135.397 1130.2 136.378 1129.75 137.081 1128.84C137.783 1127.91 138.134 1126.5 138.134 1124.6C138.134 1122.99 137.909 1121.75 137.459 1120.86L131.462 1129.23C132.11 1129.88 133.002 1130.2 134.136 1130.2Z" fill="url(#paint21_linear_167_179)" fill-opacity="0.6"/>
<path d="M135.757 1151.45H139.728V1152.44H129.436V1151.45H134.028V1140.93L129.652 1142.75L128.896 1141.9L134.298 1139.58H135.757V1151.45Z" fill="url(#paint22_linear_167_179)" fill-opacity="0.6"/>
<path d="M134.136 1160.79C136.063 1160.79 137.522 1161.36 138.512 1162.5C139.521 1163.62 140.025 1165.26 140.025 1167.4C140.025 1169.55 139.521 1171.19 138.512 1172.33C137.522 1173.46 136.063 1174.03 134.136 1174.03C132.227 1174.03 130.769 1173.46 129.76 1172.33C128.752 1171.19 128.248 1169.55 128.248 1167.4C128.248 1165.27 128.752 1163.63 129.76 1162.5C130.769 1161.36 132.227 1160.79 134.136 1160.79ZM130.165 1167.4C130.165 1168.93 130.364 1170.12 130.76 1170.98L136.756 1162.68C136.126 1162.1 135.253 1161.8 134.136 1161.8C132.894 1161.8 131.921 1162.27 131.219 1163.19C130.517 1164.1 130.165 1165.51 130.165 1167.4ZM134.136 1173C135.397 1173 136.378 1172.55 137.081 1171.63C137.783 1170.71 138.134 1169.3 138.134 1167.4C138.134 1165.79 137.909 1164.54 137.459 1163.66L131.462 1172.03C132.11 1172.68 133.002 1173 134.136 1173Z" fill="url(#paint23_linear_167_179)" fill-opacity="0.6"/>
<path d="M135.757 1194.25H139.728V1195.24H129.436V1194.25H134.028V1183.73L129.652 1185.54L128.896 1184.7L134.298 1182.38H135.757V1194.25Z" fill="url(#paint24_linear_167_179)" fill-opacity="0.6"/>
<path d="M135.757 1215.65H139.728V1216.64H129.436V1215.65H134.028V1205.13L129.652 1206.94L128.896 1206.1L134.298 1203.78H135.757V1215.65Z" fill="url(#paint25_linear_167_179)" fill-opacity="0.6"/>
<path d="M58.8886 968.198C60.8155 968.198 62.2741 968.766 63.2645 969.902C64.273 971.026 64.7772 972.661 64.7772 974.808C64.7772 976.955 64.273 978.597 63.2645 979.732C62.2741 980.868 60.8155 981.436 58.8886 981.436C56.9798 981.436 55.5211 980.868 54.5127 979.732C53.5042 978.597 53 976.955 53 974.808C53 972.673 53.5042 971.038 54.5127 969.902C55.5211 968.766 56.9798 968.198 58.8886 968.198ZM54.9178 974.808C54.9178 976.331 55.1159 977.523 55.5121 978.384L61.5088 970.089C60.8785 969.503 60.0051 969.209 58.8886 969.209C57.6461 969.209 56.6736 969.671 55.9713 970.595C55.269 971.506 54.9178 972.911 54.9178 974.808ZM58.8886 980.407C60.1492 980.407 61.1306 979.951 61.8329 979.04C62.5352 978.116 62.8864 976.705 62.8864 974.808C62.8864 973.198 62.6613 971.949 62.2111 971.063L56.2144 979.433C56.8627 980.082 57.7541 980.407 58.8886 980.407Z" fill="url(#paint26_linear_167_179)" fill-opacity="0.6"/>
<path d="M58.8886 989.598C60.8155 989.598 62.2741 990.166 63.2645 991.302C64.273 992.425 64.7772 994.06 64.7772 996.207C64.7772 998.354 64.273 999.996 63.2645 1001.13C62.2741 1002.27 60.8155 1002.84 58.8886 1002.84C56.9798 1002.84 55.5211 1002.27 54.5127 1001.13C53.5042 999.996 53 998.354 53 996.207C53 994.073 53.5042 992.437 54.5127 991.302C55.5211 990.166 56.9798 989.598 58.8886 989.598ZM54.9178 996.207C54.9178 997.73 55.1159 998.922 55.5121 999.784L61.5088 991.489C60.8785 990.902 60.0051 990.609 58.8886 990.609C57.6461 990.609 56.6736 991.071 55.9713 991.994C55.269 992.906 54.9178 994.31 54.9178 996.207ZM58.8886 1001.81C60.1492 1001.81 61.1306 1001.35 61.8329 1000.44C62.5352 999.515 62.8864 998.105 62.8864 996.207C62.8864 994.597 62.6613 993.349 62.2111 992.462L56.2144 1000.83C56.8627 1001.48 57.7541 1001.81 58.8886 1001.81Z" fill="url(#paint27_linear_167_179)" fill-opacity="0.6"/>
<path d="M60.5093 1023.06H64.4801V1024.05H54.1885V1023.06H58.7806V1012.53L54.4046 1014.35L53.6483 1013.51L59.0507 1011.18H60.5093V1023.06Z" fill="url(#paint28_linear_167_179)" fill-opacity="0.6"/>
<path d="M58.8886 1032.4C60.8155 1032.4 62.2741 1032.96 63.2645 1034.1C64.273 1035.22 64.7772 1036.86 64.7772 1039.01C64.7772 1041.15 64.273 1042.79 63.2645 1043.93C62.2741 1045.07 60.8155 1045.63 58.8886 1045.63C56.9798 1045.63 55.5211 1045.07 54.5127 1043.93C53.5042 1042.79 53 1041.15 53 1039.01C53 1036.87 53.5042 1035.24 54.5127 1034.1C55.5211 1032.96 56.9798 1032.4 58.8886 1032.4ZM54.9178 1039.01C54.9178 1040.53 55.1159 1041.72 55.5121 1042.58L61.5088 1034.29C60.8785 1033.7 60.0051 1033.41 58.8886 1033.41C57.6461 1033.41 56.6736 1033.87 55.9713 1034.79C55.269 1035.7 54.9178 1037.11 54.9178 1039.01ZM58.8886 1044.6C60.1492 1044.6 61.1306 1044.15 61.8329 1043.24C62.5352 1042.31 62.8864 1040.9 62.8864 1039.01C62.8864 1037.4 62.6613 1036.15 62.2111 1035.26L56.2144 1043.63C56.8627 1044.28 57.7541 1044.6 58.8886 1044.6Z" fill="url(#paint29_linear_167_179)" fill-opacity="0.6"/>
<path d="M60.5093 1065.85H64.4801V1066.85H54.1885V1065.85H58.7806V1055.33L54.4046 1057.15L53.6483 1056.3L59.0507 1053.98H60.5093V1065.85Z" fill="url(#paint30_linear_167_179)" fill-opacity="0.6"/>
<path d="M60.5093 1087.25H64.4801V1088.25H54.1885V1087.25H58.7806V1076.73L54.4046 1078.55L53.6483 1077.7L59.0507 1075.38H60.5093V1087.25Z" fill="url(#paint31_linear_167_179)" fill-opacity="0.6"/>
<path d="M110.674 937.458H114.645V938.45H104.354V937.458H108.946V926.935L104.57 928.751L103.813 927.908L109.216 925.587H110.674V937.458Z" fill="url(#paint32_linear_167_179)" fill-opacity="0.6"/>
<path d="M109.054 946.799C110.981 946.799 112.439 947.367 113.43 948.503C114.438 949.626 114.942 951.261 114.942 953.409C114.942 955.556 114.438 957.197 113.43 958.333C112.439 959.469 110.981 960.037 109.054 960.037C107.145 960.037 105.686 959.469 104.678 958.333C103.669 957.197 103.165 955.556 103.165 953.409C103.165 951.274 103.669 949.639 104.678 948.503C105.686 947.367 107.145 946.799 109.054 946.799ZM105.083 953.409C105.083 954.931 105.281 956.124 105.677 956.985L111.674 948.69C111.044 948.103 110.17 947.81 109.054 947.81C107.811 947.81 106.839 948.272 106.136 949.196C105.434 950.107 105.083 951.511 105.083 953.409ZM109.054 959.007C110.314 959.007 111.296 958.552 111.998 957.64C112.7 956.717 113.051 955.306 113.051 953.409C113.051 951.798 112.826 950.55 112.376 949.664L106.38 958.033C107.028 958.683 107.919 959.007 109.054 959.007Z" fill="url(#paint33_linear_167_179)" fill-opacity="0.6"/>
<path d="M110.674 980.257H114.645V981.249H104.354V980.257H108.946V969.734L104.57 971.55L103.813 970.707L109.216 968.385H110.674V980.257Z" fill="url(#paint34_linear_167_179)" fill-opacity="0.6"/>
<path d="M110.674 1001.66H114.645V1002.65H104.354V1001.66H108.946V991.133L104.57 992.949L103.813 992.107L109.216 989.785H110.674V1001.66Z" fill="url(#paint35_linear_167_179)" fill-opacity="0.6"/>
<path d="M109.054 1011C110.981 1011 112.439 1011.56 113.43 1012.7C114.438 1013.82 114.942 1015.46 114.942 1017.61C114.942 1019.75 114.438 1021.4 113.43 1022.53C112.439 1023.67 110.981 1024.24 109.054 1024.24C107.145 1024.24 105.686 1023.67 104.678 1022.53C103.669 1021.4 103.165 1019.75 103.165 1017.61C103.165 1015.47 103.669 1013.84 104.678 1012.7C105.686 1011.56 107.145 1011 109.054 1011ZM105.083 1017.61C105.083 1019.13 105.281 1020.32 105.677 1021.18L111.674 1012.89C111.044 1012.3 110.17 1012.01 109.054 1012.01C107.811 1012.01 106.839 1012.47 106.136 1013.39C105.434 1014.3 105.083 1015.71 105.083 1017.61ZM109.054 1023.21C110.314 1023.21 111.296 1022.75 111.998 1021.84C112.7 1020.91 113.051 1019.5 113.051 1017.61C113.051 1016 112.826 1014.75 112.376 1013.86L106.38 1022.23C107.028 1022.88 107.919 1023.21 109.054 1023.21Z" fill="url(#paint36_linear_167_179)" fill-opacity="0.6"/>
<path d="M110.674 1044.45H114.645V1045.45H104.354V1044.45H108.946V1033.93L104.57 1035.75L103.813 1034.91L109.216 1032.58H110.674V1044.45Z" fill="url(#paint37_linear_167_179)" fill-opacity="0.6"/>
<path d="M110.674 1065.85H114.645V1066.85H104.354V1065.85H108.946V1055.33L104.57 1057.15L103.813 1056.3L109.216 1053.98H110.674V1065.85Z" fill="url(#paint38_linear_167_179)" fill-opacity="0.6"/>
<path d="M109.054 1075.2C110.981 1075.2 112.439 1075.76 113.43 1076.9C114.438 1078.02 114.942 1079.66 114.942 1081.8C114.942 1083.95 114.438 1085.59 113.43 1086.73C112.439 1087.87 110.981 1088.43 109.054 1088.43C107.145 1088.43 105.686 1087.87 104.678 1086.73C103.669 1085.59 103.165 1083.95 103.165 1081.8C103.165 1079.67 103.669 1078.04 104.678 1076.9C105.686 1075.76 107.145 1075.2 109.054 1075.2ZM105.083 1081.8C105.083 1083.33 105.281 1084.52 105.677 1085.38L111.674 1077.09C111.044 1076.5 110.17 1076.21 109.054 1076.21C107.811 1076.21 106.839 1076.67 106.136 1077.59C105.434 1078.5 105.083 1079.91 105.083 1081.8ZM109.054 1087.4C110.314 1087.4 111.296 1086.95 111.998 1086.04C112.7 1085.11 113.051 1083.7 113.051 1081.8C113.051 1080.19 112.826 1078.95 112.376 1078.06L106.38 1086.43C107.028 1087.08 107.919 1087.4 109.054 1087.4Z" fill="url(#paint39_linear_167_179)" fill-opacity="0.6"/>
<path d="M110.674 1108.65H114.645V1109.65H104.354V1108.65H108.946V1098.13L104.57 1099.95L103.813 1099.1L109.216 1096.78H110.674V1108.65Z" fill="url(#paint40_linear_167_179)" fill-opacity="0.6"/>
<path d="M109.054 1117.99C110.981 1117.99 112.439 1118.56 113.43 1119.7C114.438 1120.82 114.942 1122.46 114.942 1124.6C114.942 1126.75 114.438 1128.39 113.43 1129.53C112.439 1130.66 110.981 1131.23 109.054 1131.23C107.145 1131.23 105.686 1130.66 104.678 1129.53C103.669 1128.39 103.165 1126.75 103.165 1124.6C103.165 1122.47 103.669 1120.83 104.678 1119.7C105.686 1118.56 107.145 1117.99 109.054 1117.99ZM105.083 1124.6C105.083 1126.13 105.281 1127.32 105.677 1128.18L111.674 1119.89C111.044 1119.3 110.17 1119.01 109.054 1119.01C107.811 1119.01 106.839 1119.47 106.136 1120.39C105.434 1121.3 105.083 1122.71 105.083 1124.6ZM109.054 1130.2C110.314 1130.2 111.296 1129.75 111.998 1128.84C112.7 1127.91 113.051 1126.5 113.051 1124.6C113.051 1122.99 112.826 1121.75 112.376 1120.86L106.38 1129.23C107.028 1129.88 107.919 1130.2 109.054 1130.2Z" fill="url(#paint41_linear_167_179)" fill-opacity="0.6"/>
<path d="M159.219 925.399C161.146 925.399 162.604 925.967 163.595 927.103C164.603 928.227 165.107 929.862 165.107 932.009C165.107 934.156 164.603 935.798 163.595 936.934C162.604 938.07 161.146 938.638 159.219 938.638C157.31 938.638 155.851 938.07 154.843 936.934C153.834 935.798 153.33 934.156 153.33 932.009C153.33 929.875 153.834 928.239 154.843 927.103C155.851 925.967 157.31 925.399 159.219 925.399ZM155.248 932.009C155.248 933.532 155.446 934.724 155.842 935.586L161.839 927.291C161.209 926.704 160.335 926.411 159.219 926.411C157.976 926.411 157.004 926.872 156.301 927.796C155.599 928.707 155.248 930.112 155.248 932.009ZM159.219 937.608C160.479 937.608 161.461 937.152 162.163 936.241C162.865 935.317 163.217 933.907 163.217 932.009C163.217 930.399 162.991 929.151 162.541 928.264L156.545 936.634C157.193 937.283 158.084 937.608 159.219 937.608Z" fill="url(#paint42_linear_167_179)" fill-opacity="0.6"/>
<path d="M160.839 958.857H164.81V959.85H154.519V958.857H159.111V948.334L154.735 950.15L153.978 949.308L159.381 946.986H160.839V958.857Z" fill="url(#paint43_linear_167_179)" fill-opacity="0.6"/>
<path d="M160.839 980.257H164.81V981.249H154.519V980.257H159.111V969.734L154.735 971.55L153.978 970.707L159.381 968.385H160.839V980.257Z" fill="url(#paint44_linear_167_179)" fill-opacity="0.6"/>
<path d="M159.219 989.598C161.146 989.598 162.604 990.166 163.595 991.302C164.603 992.425 165.107 994.06 165.107 996.207C165.107 998.354 164.603 999.996 163.595 1001.13C162.604 1002.27 161.146 1002.84 159.219 1002.84C157.31 1002.84 155.851 1002.27 154.843 1001.13C153.834 999.996 153.33 998.354 153.33 996.207C153.33 994.073 153.834 992.437 154.843 991.302C155.851 990.166 157.31 989.598 159.219 989.598ZM155.248 996.207C155.248 997.73 155.446 998.922 155.842 999.784L161.839 991.489C161.209 990.902 160.335 990.609 159.219 990.609C157.976 990.609 157.004 991.071 156.301 991.994C155.599 992.906 155.248 994.31 155.248 996.207ZM159.219 1001.81C160.479 1001.81 161.461 1001.35 162.163 1000.44C162.865 999.515 163.217 998.105 163.217 996.207C163.217 994.597 162.991 993.349 162.541 992.462L156.545 1000.83C157.193 1001.48 158.084 1001.81 159.219 1001.81Z" fill="url(#paint45_linear_167_179)" fill-opacity="0.6"/>
<path d="M159.219 1011C161.146 1011 162.604 1011.56 163.595 1012.7C164.603 1013.82 165.107 1015.46 165.107 1017.61C165.107 1019.75 164.603 1021.4 163.595 1022.53C162.604 1023.67 161.146 1024.24 159.219 1024.24C157.31 1024.24 155.851 1023.67 154.843 1022.53C153.834 1021.4 153.33 1019.75 153.33 1017.61C153.33 1015.47 153.834 1013.84 154.843 1012.7C155.851 1011.56 157.31 1011 159.219 1011ZM155.248 1017.61C155.248 1019.13 155.446 1020.32 155.842 1021.18L161.839 1012.89C161.209 1012.3 160.335 1012.01 159.219 1012.01C157.976 1012.01 157.004 1012.47 156.301 1013.39C155.599 1014.3 155.248 1015.71 155.248 1017.61ZM159.219 1023.21C160.479 1023.21 161.461 1022.75 162.163 1021.84C162.865 1020.91 163.217 1019.5 163.217 1017.61C163.217 1016 162.991 1014.75 162.541 1013.86L156.545 1022.23C157.193 1022.88 158.084 1023.21 159.219 1023.21Z" fill="url(#paint46_linear_167_179)" fill-opacity="0.6"/>
<g opacity="0.6">
<path d="M1650.55 1C1652.39 1 1653.78 1.54506 1654.72 2.63518C1655.68 3.71332 1656.17 5.28262 1656.17 7.34306C1656.17 9.40351 1655.68 10.9788 1654.72 12.0689C1653.78 13.159 1652.39 13.7041 1650.55 13.7041C1648.73 13.7041 1647.33 13.159 1646.37 12.0689C1645.41 10.9788 1644.93 9.40351 1644.93 7.34306C1644.93 5.2946 1645.41 3.7253 1646.37 2.63518C1647.33 1.54506 1648.73 1 1650.55 1ZM1646.76 7.34306C1646.76 8.80454 1646.95 9.94857 1647.33 10.7751L1653.05 2.81487C1652.45 2.25184 1651.61 1.97033 1650.55 1.97033C1649.36 1.97033 1648.43 2.41356 1647.76 3.30003C1647.09 4.17453 1646.76 5.5222 1646.76 7.34306ZM1650.55 12.7158C1651.75 12.7158 1652.69 12.2786 1653.36 11.4041C1654.03 10.5176 1654.36 9.16392 1654.36 7.34306C1654.36 5.79773 1654.15 4.59979 1653.72 3.74926L1648 11.7814C1648.61 12.4043 1649.46 12.7158 1650.55 12.7158Z" fill="url(#paint47_linear_167_179)"/>
<path d="M1652.09 33.1081H1655.88V34.0604H1646.06V33.1081H1650.44V23.0095L1646.27 24.7525L1645.55 23.9439L1650.7 21.7157H1652.09V33.1081Z" fill="url(#paint48_linear_167_179)"/>
<path d="M1650.55 42.072C1652.39 42.072 1653.78 42.6171 1654.72 43.7072C1655.68 44.7854 1656.17 46.3547 1656.17 48.4151C1656.17 50.4756 1655.68 52.0508 1654.72 53.141C1653.78 54.2311 1652.39 54.7761 1650.55 54.7761C1648.73 54.7761 1647.33 54.2311 1646.37 53.141C1645.41 52.0508 1644.93 50.4756 1644.93 48.4151C1644.93 46.3666 1645.41 44.7973 1646.37 43.7072C1647.33 42.6171 1648.73 42.072 1650.55 42.072ZM1646.76 48.4151C1646.76 49.8766 1646.95 51.0206 1647.33 51.8472L1653.05 43.8869C1652.45 43.3239 1651.61 43.0424 1650.55 43.0424C1649.36 43.0424 1648.43 43.4856 1647.76 44.3721C1647.09 45.2466 1646.76 46.5942 1646.76 48.4151ZM1650.55 53.7878C1651.75 53.7878 1652.69 53.3506 1653.36 52.4761C1654.03 51.5896 1654.36 50.236 1654.36 48.4151C1654.36 46.8698 1654.15 45.6718 1653.72 44.8213L1648 52.8535C1648.61 53.4764 1649.46 53.7878 1650.55 53.7878Z" fill="url(#paint49_linear_167_179)"/>
<path d="M1652.09 74.1801H1655.88V75.1325H1646.06V74.1801H1650.44V64.0815L1646.27 65.8245L1645.55 65.0159L1650.7 62.7878H1652.09V74.1801Z" fill="url(#paint50_linear_167_179)"/>
<path d="M1652.09 94.7161H1655.88V95.6685H1646.06V94.7161H1650.44V84.6175L1646.27 86.3605L1645.55 85.5519L1650.7 83.3238H1652.09V94.7161Z" fill="url(#paint51_linear_167_179)"/>
<path d="M1650.55 103.68C1652.39 103.68 1653.78 104.225 1654.72 105.315C1655.68 106.393 1656.17 107.963 1656.17 110.023C1656.17 112.084 1655.68 113.659 1654.72 114.749C1653.78 115.839 1652.39 116.384 1650.55 116.384C1648.73 116.384 1647.33 115.839 1646.37 114.749C1645.41 113.659 1644.93 112.084 1644.93 110.023C1644.93 107.975 1645.41 106.405 1646.37 105.315C1647.33 104.225 1648.73 103.68 1650.55 103.68ZM1646.76 110.023C1646.76 111.485 1646.95 112.629 1647.33 113.455L1653.05 105.495C1652.45 104.932 1651.61 104.65 1650.55 104.65C1649.36 104.65 1648.43 105.094 1647.76 105.98C1647.09 106.855 1646.76 108.202 1646.76 110.023ZM1650.55 115.396C1651.75 115.396 1652.69 114.959 1653.36 114.084C1654.03 113.198 1654.36 111.844 1654.36 110.023C1654.36 108.478 1654.15 107.28 1653.72 106.429L1648 114.462C1648.61 115.084 1649.46 115.396 1650.55 115.396Z" fill="url(#paint52_linear_167_179)"/>
<path d="M1652.09 135.788H1655.88V136.741H1646.06V135.788H1650.44V125.69L1646.27 127.433L1645.55 126.624L1650.7 124.396H1652.09V135.788Z" fill="url(#paint53_linear_167_179)"/>
<path d="M1650.55 144.752C1652.39 144.752 1653.78 145.297 1654.72 146.387C1655.68 147.465 1656.17 149.035 1656.17 151.095C1656.17 153.156 1655.68 154.731 1654.72 155.821C1653.78 156.911 1652.39 157.456 1650.55 157.456C1648.73 157.456 1647.33 156.911 1646.37 155.821C1645.41 154.731 1644.93 153.156 1644.93 151.095C1644.93 149.047 1645.41 147.477 1646.37 146.387C1647.33 145.297 1648.73 144.752 1650.55 144.752ZM1646.76 151.095C1646.76 152.557 1646.95 153.701 1647.33 154.527L1653.05 146.567C1652.45 146.004 1651.61 145.722 1650.55 145.722C1649.36 145.722 1648.43 146.166 1647.76 147.052C1647.09 147.927 1646.76 149.274 1646.76 151.095ZM1650.55 156.468C1651.75 156.468 1652.69 156.031 1653.36 155.156C1654.03 154.27 1654.36 152.916 1654.36 151.095C1654.36 149.55 1654.15 148.352 1653.72 147.501L1648 155.534C1648.61 156.156 1649.46 156.468 1650.55 156.468Z" fill="url(#paint54_linear_167_179)"/>
<path d="M1650.55 165.288C1652.39 165.288 1653.78 165.833 1654.72 166.923C1655.68 168.001 1656.17 169.571 1656.17 171.631C1656.17 173.692 1655.68 175.267 1654.72 176.357C1653.78 177.447 1652.39 177.992 1650.55 177.992C1648.73 177.992 1647.33 177.447 1646.37 176.357C1645.41 175.267 1644.93 173.692 1644.93 171.631C1644.93 169.583 1645.41 168.013 1646.37 166.923C1647.33 165.833 1648.73 165.288 1650.55 165.288ZM1646.76 171.631C1646.76 173.093 1646.95 174.237 1647.33 175.063L1653.05 167.103C1652.45 166.54 1651.61 166.258 1650.55 166.258C1649.36 166.258 1648.43 166.702 1647.76 167.588C1647.09 168.463 1646.76 169.81 1646.76 171.631ZM1650.55 177.004C1651.75 177.004 1652.69 176.567 1653.36 175.692C1654.03 174.806 1654.36 173.452 1654.36 171.631C1654.36 170.086 1654.15 168.888 1653.72 168.037L1648 176.07C1648.61 176.692 1649.46 177.004 1650.55 177.004Z" fill="url(#paint55_linear_167_179)"/>
<path d="M1652.09 197.396H1655.88V198.349H1646.06V197.396H1650.44V187.298L1646.27 189.041L1645.55 188.232L1650.7 186.004H1652.09V197.396Z" fill="url(#paint56_linear_167_179)"/>
<path d="M1650.55 206.36C1652.39 206.36 1653.78 206.905 1654.72 207.995C1655.68 209.074 1656.17 210.643 1656.17 212.703C1656.17 214.764 1655.68 216.339 1654.72 217.429C1653.78 218.519 1652.39 219.064 1650.55 219.064C1648.73 219.064 1647.33 218.519 1646.37 217.429C1645.41 216.339 1644.93 214.764 1644.93 212.703C1644.93 210.655 1645.41 209.086 1646.37 207.995C1647.33 206.905 1648.73 206.36 1650.55 206.36ZM1646.76 212.703C1646.76 214.165 1646.95 215.309 1647.33 216.135L1653.05 208.175C1652.45 207.612 1651.61 207.331 1650.55 207.331C1649.36 207.331 1648.43 207.774 1647.76 208.66C1647.09 209.535 1646.76 210.882 1646.76 212.703ZM1650.55 218.076C1651.75 218.076 1652.69 217.639 1653.36 216.764C1654.03 215.878 1654.36 214.524 1654.36 212.703C1654.36 211.158 1654.15 209.96 1653.72 209.109L1648 217.142C1648.61 217.765 1649.46 218.076 1650.55 218.076Z" fill="url(#paint57_linear_167_179)"/>
<path d="M1652.09 238.468H1655.88V239.421H1646.06V238.468H1650.44V228.37L1646.27 230.113L1645.55 229.304L1650.7 227.076H1652.09V238.468Z" fill="url(#paint58_linear_167_179)"/>
<path d="M1652.09 259.004H1655.88V259.957H1646.06V259.004H1650.44V248.906L1646.27 250.649L1645.55 249.84L1650.7 247.612H1652.09V259.004Z" fill="url(#paint59_linear_167_179)"/>
<path d="M1698.41 42.072C1700.24 42.072 1701.64 42.6171 1702.58 43.7072C1703.54 44.7854 1704.02 46.3547 1704.02 48.4151C1704.02 50.4756 1703.54 52.0508 1702.58 53.141C1701.64 54.2311 1700.24 54.7761 1698.41 54.7761C1696.58 54.7761 1695.19 54.2311 1694.23 53.141C1693.27 52.0508 1692.79 50.4756 1692.79 48.4151C1692.79 46.3666 1693.27 44.7973 1694.23 43.7072C1695.19 42.6171 1696.58 42.072 1698.41 42.072ZM1694.62 48.4151C1694.62 49.8766 1694.81 51.0206 1695.18 51.8472L1700.91 43.8869C1700.3 43.3239 1699.47 43.0424 1698.41 43.0424C1697.22 43.0424 1696.29 43.4856 1695.62 44.3721C1694.95 45.2466 1694.62 46.5942 1694.62 48.4151ZM1698.41 53.7878C1699.61 53.7878 1700.54 53.3506 1701.21 52.4761C1701.88 51.5896 1702.22 50.236 1702.22 48.4151C1702.22 46.8698 1702.01 45.6718 1701.58 44.8213L1695.85 52.8535C1696.47 53.4764 1697.32 53.7878 1698.41 53.7878Z" fill="url(#paint60_linear_167_179)"/>
<path d="M1699.95 74.1801H1703.74V75.1325H1693.92V74.1801H1698.3V64.0815L1694.13 65.8245L1693.41 65.0159L1698.56 62.7878H1699.95V74.1801Z" fill="url(#paint61_linear_167_179)"/>
<path d="M1698.41 83.1441C1700.24 83.1441 1701.64 83.6891 1702.58 84.7793C1703.54 85.8574 1704.02 87.4267 1704.02 89.4872C1704.02 91.5476 1703.54 93.1229 1702.58 94.213C1701.64 95.3031 1700.24 95.8482 1698.41 95.8482C1696.58 95.8482 1695.19 95.3031 1694.23 94.213C1693.27 93.1229 1692.79 91.5476 1692.79 89.4872C1692.79 87.4387 1693.27 85.8694 1694.23 84.7793C1695.19 83.6891 1696.58 83.1441 1698.41 83.1441ZM1694.62 89.4872C1694.62 90.9486 1694.81 92.0927 1695.18 92.9192L1700.91 84.959C1700.3 84.3959 1699.47 84.1144 1698.41 84.1144C1697.22 84.1144 1696.29 84.5576 1695.62 85.4441C1694.95 86.3186 1694.62 87.6663 1694.62 89.4872ZM1698.41 94.8599C1699.61 94.8599 1700.54 94.4226 1701.21 93.5481C1701.88 92.6617 1702.22 91.308 1702.22 89.4872C1702.22 87.9418 1702.01 86.7439 1701.58 85.8933L1695.85 93.9255C1696.47 94.5484 1697.32 94.8599 1698.41 94.8599Z" fill="url(#paint62_linear_167_179)"/>
<path d="M1698.41 103.68C1700.24 103.68 1701.64 104.225 1702.58 105.315C1703.54 106.393 1704.02 107.963 1704.02 110.023C1704.02 112.084 1703.54 113.659 1702.58 114.749C1701.64 115.839 1700.24 116.384 1698.41 116.384C1696.58 116.384 1695.19 115.839 1694.23 114.749C1693.27 113.659 1692.79 112.084 1692.79 110.023C1692.79 107.975 1693.27 106.405 1694.23 105.315C1695.19 104.225 1696.58 103.68 1698.41 103.68ZM1694.62 110.023C1694.62 111.485 1694.81 112.629 1695.18 113.455L1700.91 105.495C1700.3 104.932 1699.47 104.65 1698.41 104.65C1697.22 104.65 1696.29 105.094 1695.62 105.98C1694.95 106.855 1694.62 108.202 1694.62 110.023ZM1698.41 115.396C1699.61 115.396 1700.54 114.959 1701.21 114.084C1701.88 113.198 1702.22 111.844 1702.22 110.023C1702.22 108.478 1702.01 107.28 1701.58 106.429L1695.85 114.462C1696.47 115.084 1697.32 115.396 1698.41 115.396Z" fill="url(#paint63_linear_167_179)"/>
<path d="M1699.95 135.788H1703.74V136.741H1693.92V135.788H1698.3V125.69L1694.13 127.433L1693.41 126.624L1698.56 124.396H1699.95V135.788Z" fill="url(#paint64_linear_167_179)"/>
<path d="M1698.41 144.752C1700.24 144.752 1701.64 145.297 1702.58 146.387C1703.54 147.465 1704.02 149.035 1704.02 151.095C1704.02 153.156 1703.54 154.731 1702.58 155.821C1701.64 156.911 1700.24 157.456 1698.41 157.456C1696.58 157.456 1695.19 156.911 1694.23 155.821C1693.27 154.731 1692.79 153.156 1692.79 151.095C1692.79 149.047 1693.27 147.477 1694.23 146.387C1695.19 145.297 1696.58 144.752 1698.41 144.752ZM1694.62 151.095C1694.62 152.557 1694.81 153.701 1695.18 154.527L1700.91 146.567C1700.3 146.004 1699.47 145.722 1698.41 145.722C1697.22 145.722 1696.29 146.166 1695.62 147.052C1694.95 147.927 1694.62 149.274 1694.62 151.095ZM1698.41 156.468C1699.61 156.468 1700.54 156.031 1701.21 155.156C1701.88 154.27 1702.22 152.916 1702.22 151.095C1702.22 149.55 1702.01 148.352 1701.58 147.501L1695.85 155.534C1696.47 156.156 1697.32 156.468 1698.41 156.468Z" fill="url(#paint65_linear_167_179)"/>
<path d="M1699.95 176.86H1703.74V177.813H1693.92V176.86H1698.3V166.762L1694.13 168.505L1693.41 167.696L1698.56 165.468H1699.95V176.86Z" fill="url(#paint66_linear_167_179)"/>
<path d="M1698.41 185.824C1700.24 185.824 1701.64 186.369 1702.58 187.459C1703.54 188.538 1704.02 190.107 1704.02 192.167C1704.02 194.228 1703.54 195.803 1702.58 196.893C1701.64 197.983 1700.24 198.528 1698.41 198.528C1696.58 198.528 1695.19 197.983 1694.23 196.893C1693.27 195.803 1692.79 194.228 1692.79 192.167C1692.79 190.119 1693.27 188.549 1694.23 187.459C1695.19 186.369 1696.58 185.824 1698.41 185.824ZM1694.62 192.167C1694.62 193.629 1694.81 194.773 1695.18 195.599L1700.91 187.639C1700.3 187.076 1699.47 186.795 1698.41 186.795C1697.22 186.795 1696.29 187.238 1695.62 188.124C1694.95 188.999 1694.62 190.346 1694.62 192.167ZM1698.41 197.54C1699.61 197.54 1700.54 197.103 1701.21 196.228C1701.88 195.342 1702.22 193.988 1702.22 192.167C1702.22 190.622 1702.01 189.424 1701.58 188.573L1695.85 196.606C1696.47 197.229 1697.32 197.54 1698.41 197.54Z" fill="url(#paint67_linear_167_179)"/>
<path d="M1698.41 206.36C1700.24 206.36 1701.64 206.905 1702.58 207.995C1703.54 209.074 1704.02 210.643 1704.02 212.703C1704.02 214.764 1703.54 216.339 1702.58 217.429C1701.64 218.519 1700.24 219.064 1698.41 219.064C1696.58 219.064 1695.19 218.519 1694.23 217.429C1693.27 216.339 1692.79 214.764 1692.79 212.703C1692.79 210.655 1693.27 209.086 1694.23 207.995C1695.19 206.905 1696.58 206.36 1698.41 206.36ZM1694.62 212.703C1694.62 214.165 1694.81 215.309 1695.18 216.135L1700.91 208.175C1700.3 207.612 1699.47 207.331 1698.41 207.331C1697.22 207.331 1696.29 207.774 1695.62 208.66C1694.95 209.535 1694.62 210.882 1694.62 212.703ZM1698.41 218.076C1699.61 218.076 1700.54 217.639 1701.21 216.764C1701.88 215.878 1702.22 214.524 1702.22 212.703C1702.22 211.158 1702.01 209.96 1701.58 209.109L1695.85 217.142C1696.47 217.765 1697.32 218.076 1698.41 218.076Z" fill="url(#paint68_linear_167_179)"/>
<path d="M1699.95 238.468H1703.74V239.421H1693.92V238.468H1698.3V228.37L1694.13 230.113L1693.41 229.304L1698.56 227.076H1699.95V238.468Z" fill="url(#paint69_linear_167_179)"/>
<path d="M1698.41 247.432C1700.24 247.432 1701.64 247.977 1702.58 249.067C1703.54 250.146 1704.02 251.715 1704.02 253.775C1704.02 255.836 1703.54 257.411 1702.58 258.501C1701.64 259.591 1700.24 260.136 1698.41 260.136C1696.58 260.136 1695.19 259.591 1694.23 258.501C1693.27 257.411 1692.79 255.836 1692.79 253.775C1692.79 251.727 1693.27 250.158 1694.23 249.067C1695.19 247.977 1696.58 247.432 1698.41 247.432ZM1694.62 253.775C1694.62 255.237 1694.81 256.381 1695.18 257.207L1700.91 249.247C1700.3 248.684 1699.47 248.403 1698.41 248.403C1697.22 248.403 1696.29 248.846 1695.62 249.732C1694.95 250.607 1694.62 251.954 1694.62 253.775ZM1698.41 259.148C1699.61 259.148 1700.54 258.711 1701.21 257.836C1701.88 256.95 1702.22 255.596 1702.22 253.775C1702.22 252.23 1702.01 251.032 1701.58 250.182L1695.85 258.214C1696.47 258.837 1697.32 259.148 1698.41 259.148Z" fill="url(#paint70_linear_167_179)"/>
<path d="M1699.95 279.54H1703.74V280.493H1693.92V279.54H1698.3V269.442L1694.13 271.185L1693.41 270.376L1698.56 268.148H1699.95V279.54Z" fill="url(#paint71_linear_167_179)"/>
<path d="M1699.95 300.076H1703.74V301.029H1693.92V300.076H1698.3V289.978L1694.13 291.721L1693.41 290.912L1698.56 288.684H1699.95V300.076Z" fill="url(#paint72_linear_167_179)"/>
<path d="M1626.62 62.6081C1628.46 62.6081 1629.85 63.1531 1630.79 64.2432C1631.75 65.3214 1632.24 66.8907 1632.24 68.9511C1632.24 71.0116 1631.75 72.5869 1630.79 73.677C1629.85 74.7671 1628.46 75.3122 1626.62 75.3122C1624.8 75.3122 1623.41 74.7671 1622.44 73.677C1621.48 72.5869 1621 71.0116 1621 68.9511C1621 66.9027 1621.48 65.3334 1622.44 64.2432C1623.41 63.1531 1624.8 62.6081 1626.62 62.6081ZM1622.83 68.9511C1622.83 70.4126 1623.02 71.5566 1623.4 72.3832L1629.12 64.4229C1628.52 63.8599 1627.68 63.5784 1626.62 63.5784C1625.43 63.5784 1624.5 64.0216 1623.83 64.9081C1623.16 65.7826 1622.83 67.1303 1622.83 68.9511ZM1626.62 74.3239C1627.82 74.3239 1628.76 73.8866 1629.43 73.0121C1630.1 72.1257 1630.43 70.772 1630.43 68.9511C1630.43 67.4058 1630.22 66.2079 1629.79 65.3573L1624.07 73.3895C1624.69 74.0124 1625.54 74.3239 1626.62 74.3239Z" fill="url(#paint73_linear_167_179)"/>
<path d="M1626.62 83.1441C1628.46 83.1441 1629.85 83.6891 1630.79 84.7793C1631.75 85.8574 1632.24 87.4267 1632.24 89.4872C1632.24 91.5476 1631.75 93.1229 1630.79 94.213C1629.85 95.3031 1628.46 95.8482 1626.62 95.8482C1624.8 95.8482 1623.41 95.3031 1622.44 94.213C1621.48 93.1229 1621 91.5476 1621 89.4872C1621 87.4387 1621.48 85.8694 1622.44 84.7793C1623.41 83.6891 1624.8 83.1441 1626.62 83.1441ZM1622.83 89.4872C1622.83 90.9486 1623.02 92.0927 1623.4 92.9192L1629.12 84.959C1628.52 84.3959 1627.68 84.1144 1626.62 84.1144C1625.43 84.1144 1624.5 84.5576 1623.83 85.4441C1623.16 86.3186 1622.83 87.6663 1622.83 89.4872ZM1626.62 94.8599C1627.82 94.8599 1628.76 94.4226 1629.43 93.5481C1630.1 92.6617 1630.43 91.308 1630.43 89.4872C1630.43 87.9418 1630.22 86.7439 1629.79 85.8933L1624.07 93.9255C1624.69 94.5484 1625.54 94.8599 1626.62 94.8599Z" fill="url(#paint74_linear_167_179)"/>
<path d="M1628.16 115.252H1631.95V116.205H1622.13V115.252H1626.51V105.154L1622.34 106.897L1621.62 106.088L1626.77 103.86H1628.16V115.252Z" fill="url(#paint75_linear_167_179)"/>
<path d="M1626.62 124.216C1628.46 124.216 1629.85 124.761 1630.79 125.851C1631.75 126.929 1632.24 128.499 1632.24 130.559C1632.24 132.62 1631.75 134.195 1630.79 135.285C1629.85 136.375 1628.46 136.92 1626.62 136.92C1624.8 136.92 1623.41 136.375 1622.44 135.285C1621.48 134.195 1621 132.62 1621 130.559C1621 128.511 1621.48 126.941 1622.44 125.851C1623.41 124.761 1624.8 124.216 1626.62 124.216ZM1622.83 130.559C1622.83 132.021 1623.02 133.165 1623.4 133.991L1629.12 126.031C1628.52 125.468 1627.68 125.186 1626.62 125.186C1625.43 125.186 1624.5 125.63 1623.83 126.516C1623.16 127.391 1622.83 128.738 1622.83 130.559ZM1626.62 135.932C1627.82 135.932 1628.76 135.495 1629.43 134.62C1630.1 133.734 1630.43 132.38 1630.43 130.559C1630.43 129.014 1630.22 127.816 1629.79 126.965L1624.07 134.998C1624.69 135.62 1625.54 135.932 1626.62 135.932Z" fill="url(#paint76_linear_167_179)"/>
<path d="M1628.16 156.324H1631.95V157.277H1622.13V156.324H1626.51V146.226L1622.34 147.969L1621.62 147.16L1626.77 144.932H1628.16V156.324Z" fill="url(#paint77_linear_167_179)"/>
<path d="M1628.16 176.86H1631.95V177.813H1622.13V176.86H1626.51V166.762L1622.34 168.505L1621.62 167.696L1626.77 165.468H1628.16V176.86Z" fill="url(#paint78_linear_167_179)"/>
<path d="M1676.02 33.1081H1679.81V34.0604H1669.99V33.1081H1674.37V23.0095L1670.2 24.7525L1669.48 23.9439L1674.63 21.7157H1676.02V33.1081Z" fill="url(#paint79_linear_167_179)"/>
<path d="M1674.48 42.072C1676.31 42.072 1677.71 42.6171 1678.65 43.7072C1679.61 44.7854 1680.09 46.3547 1680.09 48.4151C1680.09 50.4756 1679.61 52.0508 1678.65 53.141C1677.71 54.2311 1676.31 54.7761 1674.48 54.7761C1672.66 54.7761 1671.26 54.2311 1670.3 53.141C1669.34 52.0508 1668.86 50.4756 1668.86 48.4151C1668.86 46.3666 1669.34 44.7973 1670.3 43.7072C1671.26 42.6171 1672.66 42.072 1674.48 42.072ZM1670.69 48.4151C1670.69 49.8766 1670.88 51.0206 1671.26 51.8472L1676.98 43.8869C1676.37 43.3239 1675.54 43.0424 1674.48 43.0424C1673.29 43.0424 1672.36 43.4856 1671.69 44.3721C1671.02 45.2466 1670.69 46.5942 1670.69 48.4151ZM1674.48 53.7878C1675.68 53.7878 1676.62 53.3506 1677.29 52.4761C1677.96 51.5896 1678.29 50.236 1678.29 48.4151C1678.29 46.8698 1678.08 45.6718 1677.65 44.8213L1671.93 52.8535C1672.54 53.4764 1673.39 53.7878 1674.48 53.7878Z" fill="url(#paint80_linear_167_179)"/>
<path d="M1676.02 74.1801H1679.81V75.1325H1669.99V74.1801H1674.37V64.0815L1670.2 65.8245L1669.48 65.0159L1674.63 62.7878H1676.02V74.1801Z" fill="url(#paint81_linear_167_179)"/>
<path d="M1676.02 94.7161H1679.81V95.6685H1669.99V94.7161H1674.37V84.6175L1670.2 86.3605L1669.48 85.5519L1674.63 83.3238H1676.02V94.7161Z" fill="url(#paint82_linear_167_179)"/>
<path d="M1674.48 103.68C1676.31 103.68 1677.71 104.225 1678.65 105.315C1679.61 106.393 1680.09 107.963 1680.09 110.023C1680.09 112.084 1679.61 113.659 1678.65 114.749C1677.71 115.839 1676.31 116.384 1674.48 116.384C1672.66 116.384 1671.26 115.839 1670.3 114.749C1669.34 113.659 1668.86 112.084 1668.86 110.023C1668.86 107.975 1669.34 106.405 1670.3 105.315C1671.26 104.225 1672.66 103.68 1674.48 103.68ZM1670.69 110.023C1670.69 111.485 1670.88 112.629 1671.26 113.455L1676.98 105.495C1676.37 104.932 1675.54 104.65 1674.48 104.65C1673.29 104.65 1672.36 105.094 1671.69 105.98C1671.02 106.855 1670.69 108.202 1670.69 110.023ZM1674.48 115.396C1675.68 115.396 1676.62 114.959 1677.29 114.084C1677.96 113.198 1678.29 111.844 1678.29 110.023C1678.29 108.478 1678.08 107.28 1677.65 106.429L1671.93 114.462C1672.54 115.084 1673.39 115.396 1674.48 115.396Z" fill="url(#paint83_linear_167_179)"/>
<path d="M1676.02 135.788H1679.81V136.741H1669.99V135.788H1674.37V125.69L1670.2 127.433L1669.48 126.624L1674.63 124.396H1676.02V135.788Z" fill="url(#paint84_linear_167_179)"/>
<path d="M1676.02 156.324H1679.81V157.277H1669.99V156.324H1674.37V146.226L1670.2 147.969L1669.48 147.16L1674.63 144.932H1676.02V156.324Z" fill="url(#paint85_linear_167_179)"/>
<path d="M1674.48 165.288C1676.31 165.288 1677.71 165.833 1678.65 166.923C1679.61 168.001 1680.09 169.571 1680.09 171.631C1680.09 173.692 1679.61 175.267 1678.65 176.357C1677.71 177.447 1676.31 177.992 1674.48 177.992C1672.66 177.992 1671.26 177.447 1670.3 176.357C1669.34 175.267 1668.86 173.692 1668.86 171.631C1668.86 169.583 1669.34 168.013 1670.3 166.923C1671.26 165.833 1672.66 165.288 1674.48 165.288ZM1670.69 171.631C1670.69 173.093 1670.88 174.237 1671.26 175.063L1676.98 167.103C1676.37 166.54 1675.54 166.258 1674.48 166.258C1673.29 166.258 1672.36 166.702 1671.69 167.588C1671.02 168.463 1670.69 169.81 1670.69 171.631ZM1674.48 177.004C1675.68 177.004 1676.62 176.567 1677.29 175.692C1677.96 174.806 1678.29 173.452 1678.29 171.631C1678.29 170.086 1678.08 168.888 1677.65 168.037L1671.93 176.07C1672.54 176.692 1673.39 177.004 1674.48 177.004Z" fill="url(#paint86_linear_167_179)"/>
<path d="M1676.02 197.396H1679.81V198.349H1669.99V197.396H1674.37V187.298L1670.2 189.041L1669.48 188.232L1674.63 186.004H1676.02V197.396Z" fill="url(#paint87_linear_167_179)"/>
<path d="M1674.48 206.36C1676.31 206.36 1677.71 206.905 1678.65 207.995C1679.61 209.074 1680.09 210.643 1680.09 212.703C1680.09 214.764 1679.61 216.339 1678.65 217.429C1677.71 218.519 1676.31 219.064 1674.48 219.064C1672.66 219.064 1671.26 218.519 1670.3 217.429C1669.34 216.339 1668.86 214.764 1668.86 212.703C1668.86 210.655 1669.34 209.086 1670.3 207.995C1671.26 206.905 1672.66 206.36 1674.48 206.36ZM1670.69 212.703C1670.69 214.165 1670.88 215.309 1671.26 216.135L1676.98 208.175C1676.37 207.612 1675.54 207.331 1674.48 207.331C1673.29 207.331 1672.36 207.774 1671.69 208.66C1671.02 209.535 1670.69 210.882 1670.69 212.703ZM1674.48 218.076C1675.68 218.076 1676.62 217.639 1677.29 216.764C1677.96 215.878 1678.29 214.524 1678.29 212.703C1678.29 211.158 1678.08 209.96 1677.65 209.109L1671.93 217.142C1672.54 217.765 1673.39 218.076 1674.48 218.076Z" fill="url(#paint88_linear_167_179)"/>
<path d="M1722.34 21.536C1724.17 21.536 1725.57 22.0811 1726.51 23.1712C1727.47 24.2493 1727.95 25.8186 1727.95 27.8791C1727.95 29.9395 1727.47 31.5148 1726.51 32.6049C1725.57 33.6951 1724.17 34.2401 1722.34 34.2401C1720.51 34.2401 1719.12 33.6951 1718.16 32.6049C1717.2 31.5148 1716.72 29.9395 1716.72 27.8791C1716.72 25.8306 1717.2 24.2613 1718.16 23.1712C1719.12 22.0811 1720.51 21.536 1722.34 21.536ZM1718.55 27.8791C1718.55 29.3406 1718.74 30.4846 1719.11 31.3112L1724.83 23.3509C1724.23 22.7879 1723.4 22.5063 1722.34 22.5063C1721.15 22.5063 1720.22 22.9496 1719.55 23.8361C1718.88 24.7105 1718.55 26.0582 1718.55 27.8791ZM1722.34 33.2518C1723.54 33.2518 1724.47 32.8146 1725.14 31.9401C1725.81 31.0536 1726.15 29.6999 1726.15 27.8791C1726.15 26.3337 1725.93 25.1358 1725.5 24.2853L1719.78 32.3174C1720.4 32.9404 1721.25 33.2518 1722.34 33.2518Z" fill="url(#paint89_linear_167_179)"/>
<path d="M1723.88 53.6441H1727.67V54.5964H1717.85V53.6441H1722.23V43.5455L1718.06 45.2885L1717.34 44.4799L1722.49 42.2517H1723.88V53.6441Z" fill="url(#paint90_linear_167_179)"/>
<path d="M1723.88 74.1801H1727.67V75.1325H1717.85V74.1801H1722.23V64.0815L1718.06 65.8245L1717.34 65.0159L1722.49 62.7878H1723.88V74.1801Z" fill="url(#paint91_linear_167_179)"/>
<path d="M1722.34 83.1441C1724.17 83.1441 1725.57 83.6891 1726.51 84.7793C1727.47 85.8574 1727.95 87.4267 1727.95 89.4872C1727.95 91.5476 1727.47 93.1229 1726.51 94.213C1725.57 95.3031 1724.17 95.8482 1722.34 95.8482C1720.51 95.8482 1719.12 95.3031 1718.16 94.213C1717.2 93.1229 1716.72 91.5476 1716.72 89.4872C1716.72 87.4387 1717.2 85.8694 1718.16 84.7793C1719.12 83.6891 1720.51 83.1441 1722.34 83.1441ZM1718.55 89.4872C1718.55 90.9486 1718.74 92.0927 1719.11 92.9192L1724.83 84.959C1724.23 84.3959 1723.4 84.1144 1722.34 84.1144C1721.15 84.1144 1720.22 84.5576 1719.55 85.4441C1718.88 86.3186 1718.55 87.6663 1718.55 89.4872ZM1722.34 94.8599C1723.54 94.8599 1724.47 94.4226 1725.14 93.5481C1725.81 92.6617 1726.15 91.308 1726.15 89.4872C1726.15 87.9418 1725.93 86.7439 1725.5 85.8933L1719.78 93.9255C1720.4 94.5484 1721.25 94.8599 1722.34 94.8599Z" fill="url(#paint92_linear_167_179)"/>
<path d="M1722.34 103.68C1724.17 103.68 1725.57 104.225 1726.51 105.315C1727.47 106.393 1727.95 107.963 1727.95 110.023C1727.95 112.084 1727.47 113.659 1726.51 114.749C1725.57 115.839 1724.17 116.384 1722.34 116.384C1720.51 116.384 1719.12 115.839 1718.16 114.749C1717.2 113.659 1716.72 112.084 1716.72 110.023C1716.72 107.975 1717.2 106.405 1718.16 105.315C1719.12 104.225 1720.51 103.68 1722.34 103.68ZM1718.55 110.023C1718.55 111.485 1718.74 112.629 1719.11 113.455L1724.83 105.495C1724.23 104.932 1723.4 104.65 1722.34 104.65C1721.15 104.65 1720.22 105.094 1719.55 105.98C1718.88 106.855 1718.55 108.202 1718.55 110.023ZM1722.34 115.396C1723.54 115.396 1724.47 114.959 1725.14 114.084C1725.81 113.198 1726.15 111.844 1726.15 110.023C1726.15 108.478 1725.93 107.28 1725.5 106.429L1719.78 114.462C1720.4 115.084 1721.25 115.396 1722.34 115.396Z" fill="url(#paint93_linear_167_179)"/>
</g>
</g>
<defs>
<filter id="filter0_f_167_179" x="-400.19" y="-196.396" width="2528.38" height="1431.07" filterUnits="userSpaceOnUse" color-interpolation-filters="sRGB">
<feFlood flood-opacity="0" result="BackgroundImageFix"/>
<feBlend mode="normal" in="SourceGraphic" in2="BackgroundImageFix" result="shape"/>
<feGaussianBlur stdDeviation="200.095" result="effect1_foregroundBlur_167_179"/>
</filter>
<linearGradient id="paint0_linear_167_179" x1="109.054" y1="904" x2="109.054" y2="1184.55" gradientUnits="userSpaceOnUse">
<stop stop-color="#9243F7"/>
<stop offset="1" stop-color="#F7DD43" stop-opacity="0"/>
</linearGradient>
<linearGradient id="paint1_linear_167_179" x1="109.054" y1="904" x2="109.054" y2="1184.55" gradientUnits="userSpaceOnUse">
<stop stop-color="#9243F7"/>
<stop offset="1" stop-color="#F7DD43" stop-opacity="0"/>
</linearGradient>
<linearGradient id="paint2_linear_167_179" x1="109.054" y1="904" x2="109.054" y2="1184.55" gradientUnits="userSpaceOnUse">
<stop stop-color="#9243F7"/>
<stop offset="1" stop-color="#F7DD43" stop-opacity="0"/>
</linearGradient>
<linearGradient id="paint3_linear_167_179" x1="109.054" y1="904" x2="109.054" y2="1184.55" gradientUnits="userSpaceOnUse">
<stop stop-color="#9243F7"/>
<stop offset="1" stop-color="#F7DD43" stop-opacity="0"/>
</linearGradient>
<linearGradient id="paint4_linear_167_179" x1="109.054" y1="904" x2="109.054" y2="1184.55" gradientUnits="userSpaceOnUse">
<stop stop-color="#9243F7"/>
<stop offset="1" stop-color="#F7DD43" stop-opacity="0"/>
</linearGradient>
<linearGradient id="paint5_linear_167_179" x1="109.054" y1="904" x2="109.054" y2="1184.55" gradientUnits="userSpaceOnUse">
<stop stop-color="#9243F7"/>
<stop offset="1" stop-color="#F7DD43" stop-opacity="0"/>
</linearGradient>
<linearGradient id="paint6_linear_167_179" x1="109.054" y1="904" x2="109.054" y2="1184.55" gradientUnits="userSpaceOnUse">
<stop stop-color="#9243F7"/>
<stop offset="1" stop-color="#F7DD43" stop-opacity="0"/>
</linearGradient>
<linearGradient id="paint7_linear_167_179" x1="109.054" y1="904" x2="109.054" y2="1184.55" gradientUnits="userSpaceOnUse">
<stop stop-color="#9243F7"/>
<stop offset="1" stop-color="#F7DD43" stop-opacity="0"/>
</linearGradient>
<linearGradient id="paint8_linear_167_179" x1="109.054" y1="904" x2="109.054" y2="1184.55" gradientUnits="userSpaceOnUse">
<stop stop-color="#9243F7"/>
<stop offset="1" stop-color="#F7DD43" stop-opacity="0"/>
</linearGradient>
<linearGradient id="paint9_linear_167_179" x1="109.054" y1="904" x2="109.054" y2="1184.55" gradientUnits="userSpaceOnUse">
<stop stop-color="#9243F7"/>
<stop offset="1" stop-color="#F7DD43" stop-opacity="0"/>
</linearGradient>
<linearGradient id="paint10_linear_167_179" x1="109.054" y1="904" x2="109.054" y2="1184.55" gradientUnits="userSpaceOnUse">
<stop stop-color="#9243F7"/>
<stop offset="1" stop-color="#F7DD43" stop-opacity="0"/>
</linearGradient>
<linearGradient id="paint11_linear_167_179" x1="109.054" y1="904" x2="109.054" y2="1184.55" gradientUnits="userSpaceOnUse">
<stop stop-color="#9243F7"/>
<stop offset="1" stop-color="#F7DD43" stop-opacity="0"/>
</linearGradient>
<linearGradient id="paint12_linear_167_179" x1="109.054" y1="904" x2="109.054" y2="1184.55" gradientUnits="userSpaceOnUse">
<stop stop-color="#9243F7"/>
<stop offset="1" stop-color="#F7DD43" stop-opacity="0"/>
</linearGradient>
<linearGradient id="paint13_linear_167_179" x1="109.054" y1="904" x2="109.054" y2="1184.55" gradientUnits="userSpaceOnUse">
<stop stop-color="#9243F7"/>
<stop offset="1" stop-color="#F7DD43" stop-opacity="0"/>
</linearGradient>
<linearGradient id="paint14_linear_167_179" x1="109.054" y1="904" x2="109.054" y2="1184.55" gradientUnits="userSpaceOnUse">
<stop stop-color="#9243F7"/>
<stop offset="1" stop-color="#F7DD43" stop-opacity="0"/>
</linearGradient>
<linearGradient id="paint15_linear_167_179" x1="109.054" y1="904" x2="109.054" y2="1184.55" gradientUnits="userSpaceOnUse">
<stop stop-color="#9243F7"/>
<stop offset="1" stop-color="#F7DD43" stop-opacity="0"/>
</linearGradient>
<linearGradient id="paint16_linear_167_179" x1="109.054" y1="904" x2="109.054" y2="1184.55" gradientUnits="userSpaceOnUse">
<stop stop-color="#9243F7"/>
<stop offset="1" stop-color="#F7DD43" stop-opacity="0"/>
</linearGradient>
<linearGradient id="paint17_linear_167_179" x1="109.054" y1="904" x2="109.054" y2="1184.55" gradientUnits="userSpaceOnUse">
<stop stop-color="#9243F7"/>
<stop offset="1" stop-color="#F7DD43" stop-opacity="0"/>
</linearGradient>
<linearGradient id="paint18_linear_167_179" x1="109.054" y1="904" x2="109.054" y2="1184.55" gradientUnits="userSpaceOnUse">
<stop stop-color="#9243F7"/>
<stop offset="1" stop-color="#F7DD43" stop-opacity="0"/>
</linearGradient>
<linearGradient id="paint19_linear_167_179" x1="109.054" y1="904" x2="109.054" y2="1184.55" gradientUnits="userSpaceOnUse">
<stop stop-color="#9243F7"/>
<stop offset="1" stop-color="#F7DD43" stop-opacity="0"/>
</linearGradient>
<linearGradient id="paint20_linear_167_179" x1="109.054" y1="904" x2="109.054" y2="1184.55" gradientUnits="userSpaceOnUse">
<stop stop-color="#9243F7"/>
<stop offset="1" stop-color="#F7DD43" stop-opacity="0"/>
</linearGradient>
<linearGradient id="paint21_linear_167_179" x1="109.054" y1="904" x2="109.054" y2="1184.55" gradientUnits="userSpaceOnUse">
<stop stop-color="#9243F7"/>
<stop offset="1" stop-color="#F7DD43" stop-opacity="0"/>
</linearGradient>
<linearGradient id="paint22_linear_167_179" x1="109.054" y1="904" x2="109.054" y2="1184.55" gradientUnits="userSpaceOnUse">
<stop stop-color="#9243F7"/>
<stop offset="1" stop-color="#F7DD43" stop-opacity="0"/>
</linearGradient>
<linearGradient id="paint23_linear_167_179" x1="109.054" y1="904" x2="109.054" y2="1184.55" gradientUnits="userSpaceOnUse">
<stop stop-color="#9243F7"/>
<stop offset="1" stop-color="#F7DD43" stop-opacity="0"/>
</linearGradient>
<linearGradient id="paint24_linear_167_179" x1="109.054" y1="904" x2="109.054" y2="1184.55" gradientUnits="userSpaceOnUse">
<stop stop-color="#9243F7"/>
<stop offset="1" stop-color="#F7DD43" stop-opacity="0"/>
</linearGradient>
<linearGradient id="paint25_linear_167_179" x1="109.054" y1="904" x2="109.054" y2="1184.55" gradientUnits="userSpaceOnUse">
<stop stop-color="#9243F7"/>
<stop offset="1" stop-color="#F7DD43" stop-opacity="0"/>
</linearGradient>
<linearGradient id="paint26_linear_167_179" x1="109.054" y1="904" x2="109.054" y2="1184.55" gradientUnits="userSpaceOnUse">
<stop stop-color="#9243F7"/>
<stop offset="1" stop-color="#F7DD43" stop-opacity="0"/>
</linearGradient>
<linearGradient id="paint27_linear_167_179" x1="109.054" y1="904" x2="109.054" y2="1184.55" gradientUnits="userSpaceOnUse">
<stop stop-color="#9243F7"/>
<stop offset="1" stop-color="#F7DD43" stop-opacity="0"/>
</linearGradient>
<linearGradient id="paint28_linear_167_179" x1="109.054" y1="904" x2="109.054" y2="1184.55" gradientUnits="userSpaceOnUse">
<stop stop-color="#9243F7"/>
<stop offset="1" stop-color="#F7DD43" stop-opacity="0"/>
</linearGradient>
<linearGradient id="paint29_linear_167_179" x1="109.054" y1="904" x2="109.054" y2="1184.55" gradientUnits="userSpaceOnUse">
<stop stop-color="#9243F7"/>
<stop offset="1" stop-color="#F7DD43" stop-opacity="0"/>
</linearGradient>
<linearGradient id="paint30_linear_167_179" x1="109.054" y1="904" x2="109.054" y2="1184.55" gradientUnits="userSpaceOnUse">
<stop stop-color="#9243F7"/>
<stop offset="1" stop-color="#F7DD43" stop-opacity="0"/>
</linearGradient>
<linearGradient id="paint31_linear_167_179" x1="109.054" y1="904" x2="109.054" y2="1184.55" gradientUnits="userSpaceOnUse">
<stop stop-color="#9243F7"/>
<stop offset="1" stop-color="#F7DD43" stop-opacity="0"/>
</linearGradient>
<linearGradient id="paint32_linear_167_179" x1="109.054" y1="904" x2="109.054" y2="1184.55" gradientUnits="userSpaceOnUse">
<stop stop-color="#9243F7"/>
<stop offset="1" stop-color="#F7DD43" stop-opacity="0"/>
</linearGradient>
<linearGradient id="paint33_linear_167_179" x1="109.054" y1="904" x2="109.054" y2="1184.55" gradientUnits="userSpaceOnUse">
<stop stop-color="#9243F7"/>
<stop offset="1" stop-color="#F7DD43" stop-opacity="0"/>
</linearGradient>
<linearGradient id="paint34_linear_167_179" x1="109.054" y1="904" x2="109.054" y2="1184.55" gradientUnits="userSpaceOnUse">
<stop stop-color="#9243F7"/>
<stop offset="1" stop-color="#F7DD43" stop-opacity="0"/>
</linearGradient>
<linearGradient id="paint35_linear_167_179" x1="109.054" y1="904" x2="109.054" y2="1184.55" gradientUnits="userSpaceOnUse">
<stop stop-color="#9243F7"/>
<stop offset="1" stop-color="#F7DD43" stop-opacity="0"/>
</linearGradient>
<linearGradient id="paint36_linear_167_179" x1="109.054" y1="904" x2="109.054" y2="1184.55" gradientUnits="userSpaceOnUse">
<stop stop-color="#9243F7"/>
<stop offset="1" stop-color="#F7DD43" stop-opacity="0"/>
</linearGradient>
<linearGradient id="paint37_linear_167_179" x1="109.054" y1="904" x2="109.054" y2="1184.55" gradientUnits="userSpaceOnUse">
<stop stop-color="#9243F7"/>
<stop offset="1" stop-color="#F7DD43" stop-opacity="0"/>
</linearGradient>
<linearGradient id="paint38_linear_167_179" x1="109.054" y1="904" x2="109.054" y2="1184.55" gradientUnits="userSpaceOnUse">
<stop stop-color="#9243F7"/>
<stop offset="1" stop-color="#F7DD43" stop-opacity="0"/>
</linearGradient>
<linearGradient id="paint39_linear_167_179" x1="109.054" y1="904" x2="109.054" y2="1184.55" gradientUnits="userSpaceOnUse">
<stop stop-color="#9243F7"/>
<stop offset="1" stop-color="#F7DD43" stop-opacity="0"/>
</linearGradient>
<linearGradient id="paint40_linear_167_179" x1="109.054" y1="904" x2="109.054" y2="1184.55" gradientUnits="userSpaceOnUse">
<stop stop-color="#9243F7"/>
<stop offset="1" stop-color="#F7DD43" stop-opacity="0"/>
</linearGradient>
<linearGradient id="paint41_linear_167_179" x1="109.054" y1="904" x2="109.054" y2="1184.55" gradientUnits="userSpaceOnUse">
<stop stop-color="#9243F7"/>
<stop offset="1" stop-color="#F7DD43" stop-opacity="0"/>
</linearGradient>
<linearGradient id="paint42_linear_167_179" x1="109.054" y1="904" x2="109.054" y2="1184.55" gradientUnits="userSpaceOnUse">
<stop stop-color="#9243F7"/>
<stop offset="1" stop-color="#F7DD43" stop-opacity="0"/>
</linearGradient>
<linearGradient id="paint43_linear_167_179" x1="109.054" y1="904" x2="109.054" y2="1184.55" gradientUnits="userSpaceOnUse">
<stop stop-color="#9243F7"/>
<stop offset="1" stop-color="#F7DD43" stop-opacity="0"/>
</linearGradient>
<linearGradient id="paint44_linear_167_179" x1="109.054" y1="904" x2="109.054" y2="1184.55" gradientUnits="userSpaceOnUse">
<stop stop-color="#9243F7"/>
<stop offset="1" stop-color="#F7DD43" stop-opacity="0"/>
</linearGradient>
<linearGradient id="paint45_linear_167_179" x1="109.054" y1="904" x2="109.054" y2="1184.55" gradientUnits="userSpaceOnUse">
<stop stop-color="#9243F7"/>
<stop offset="1" stop-color="#F7DD43" stop-opacity="0"/>
</linearGradient>
<linearGradient id="paint46_linear_167_179" x1="109.054" y1="904" x2="109.054" y2="1184.55" gradientUnits="userSpaceOnUse">
<stop stop-color="#9243F7"/>
<stop offset="1" stop-color="#F7DD43" stop-opacity="0"/>
</linearGradient>
<linearGradient id="paint47_linear_167_179" x1="1674.48" y1="1" x2="1674.48" y2="270.231" gradientUnits="userSpaceOnUse">
<stop stop-color="#00FF29"/>
<stop offset="1" stop-color="#F7DD43" stop-opacity="0"/>
</linearGradient>
<linearGradient id="paint48_linear_167_179" x1="1674.48" y1="1" x2="1674.48" y2="270.231" gradientUnits="userSpaceOnUse">
<stop stop-color="#00FF29"/>
<stop offset="1" stop-color="#F7DD43" stop-opacity="0"/>
</linearGradient>
<linearGradient id="paint49_linear_167_179" x1="1674.48" y1="1" x2="1674.48" y2="270.231" gradientUnits="userSpaceOnUse">
<stop stop-color="#00FF29"/>
<stop offset="1" stop-color="#F7DD43" stop-opacity="0"/>
</linearGradient>
<linearGradient id="paint50_linear_167_179" x1="1674.48" y1="1" x2="1674.48" y2="270.231" gradientUnits="userSpaceOnUse">
<stop stop-color="#00FF29"/>
<stop offset="1" stop-color="#F7DD43" stop-opacity="0"/>
</linearGradient>
<linearGradient id="paint51_linear_167_179" x1="1674.48" y1="1" x2="1674.48" y2="270.231" gradientUnits="userSpaceOnUse">
<stop stop-color="#00FF29"/>
<stop offset="1" stop-color="#F7DD43" stop-opacity="0"/>
</linearGradient>
<linearGradient id="paint52_linear_167_179" x1="1674.48" y1="1" x2="1674.48" y2="270.231" gradientUnits="userSpaceOnUse">
<stop stop-color="#00FF29"/>
<stop offset="1" stop-color="#F7DD43" stop-opacity="0"/>
</linearGradient>
<linearGradient id="paint53_linear_167_179" x1="1674.48" y1="1" x2="1674.48" y2="270.231" gradientUnits="userSpaceOnUse">
<stop stop-color="#00FF29"/>
<stop offset="1" stop-color="#F7DD43" stop-opacity="0"/>
</linearGradient>
<linearGradient id="paint54_linear_167_179" x1="1674.48" y1="1" x2="1674.48" y2="270.231" gradientUnits="userSpaceOnUse">
<stop stop-color="#00FF29"/>
<stop offset="1" stop-color="#F7DD43" stop-opacity="0"/>
</linearGradient>
<linearGradient id="paint55_linear_167_179" x1="1674.48" y1="1" x2="1674.48" y2="270.231" gradientUnits="userSpaceOnUse">
<stop stop-color="#00FF29"/>
<stop offset="1" stop-color="#F7DD43" stop-opacity="0"/>
</linearGradient>
<linearGradient id="paint56_linear_167_179" x1="1674.48" y1="1" x2="1674.48" y2="270.231" gradientUnits="userSpaceOnUse">
<stop stop-color="#00FF29"/>
<stop offset="1" stop-color="#F7DD43" stop-opacity="0"/>
</linearGradient>
<linearGradient id="paint57_linear_167_179" x1="1674.48" y1="1" x2="1674.48" y2="270.231" gradientUnits="userSpaceOnUse">
<stop stop-color="#00FF29"/>
<stop offset="1" stop-color="#F7DD43" stop-opacity="0"/>
</linearGradient>
<linearGradient id="paint58_linear_167_179" x1="1674.48" y1="1" x2="1674.48" y2="270.231" gradientUnits="userSpaceOnUse">
<stop stop-color="#00FF29"/>
<stop offset="1" stop-color="#F7DD43" stop-opacity="0"/>
</linearGradient>
<linearGradient id="paint59_linear_167_179" x1="1674.48" y1="1" x2="1674.48" y2="270.231" gradientUnits="userSpaceOnUse">
<stop stop-color="#00FF29"/>
<stop offset="1" stop-color="#F7DD43" stop-opacity="0"/>
</linearGradient>
<linearGradient id="paint60_linear_167_179" x1="1674.48" y1="1" x2="1674.48" y2="270.231" gradientUnits="userSpaceOnUse">
<stop stop-color="#00FF29"/>
<stop offset="1" stop-color="#F7DD43" stop-opacity="0"/>
</linearGradient>
<linearGradient id="paint61_linear_167_179" x1="1674.48" y1="1" x2="1674.48" y2="270.231" gradientUnits="userSpaceOnUse">
<stop stop-color="#00FF29"/>
<stop offset="1" stop-color="#F7DD43" stop-opacity="0"/>
</linearGradient>
<linearGradient id="paint62_linear_167_179" x1="1674.48" y1="1" x2="1674.48" y2="270.231" gradientUnits="userSpaceOnUse">
<stop stop-color="#00FF29"/>
<stop offset="1" stop-color="#F7DD43" stop-opacity="0"/>
</linearGradient>
<linearGradient id="paint63_linear_167_179" x1="1674.48" y1="1" x2="1674.48" y2="270.231" gradientUnits="userSpaceOnUse">
<stop stop-color="#00FF29"/>
<stop offset="1" stop-color="#F7DD43" stop-opacity="0"/>
</linearGradient>
<linearGradient id="paint64_linear_167_179" x1="1674.48" y1="1" x2="1674.48" y2="270.231" gradientUnits="userSpaceOnUse">
<stop stop-color="#00FF29"/>
<stop offset="1" stop-color="#F7DD43" stop-opacity="0"/>
</linearGradient>
<linearGradient id="paint65_linear_167_179" x1="1674.48" y1="1" x2="1674.48" y2="270.231" gradientUnits="userSpaceOnUse">
<stop stop-color="#00FF29"/>
<stop offset="1" stop-color="#F7DD43" stop-opacity="0"/>
</linearGradient>
<linearGradient id="paint66_linear_167_179" x1="1674.48" y1="1" x2="1674.48" y2="270.231" gradientUnits="userSpaceOnUse">
<stop stop-color="#00FF29"/>
<stop offset="1" stop-color="#F7DD43" stop-opacity="0"/>
</linearGradient>
<linearGradient id="paint67_linear_167_179" x1="1674.48" y1="1" x2="1674.48" y2="270.231" gradientUnits="userSpaceOnUse">
<stop stop-color="#00FF29"/>
<stop offset="1" stop-color="#F7DD43" stop-opacity="0"/>
</linearGradient>
<linearGradient id="paint68_linear_167_179" x1="1674.48" y1="1" x2="1674.48" y2="270.231" gradientUnits="userSpaceOnUse">
<stop stop-color="#00FF29"/>
<stop offset="1" stop-color="#F7DD43" stop-opacity="0"/>
</linearGradient>
<linearGradient id="paint69_linear_167_179" x1="1674.48" y1="1" x2="1674.48" y2="270.231" gradientUnits="userSpaceOnUse">
<stop stop-color="#00FF29"/>
<stop offset="1" stop-color="#F7DD43" stop-opacity="0"/>
</linearGradient>
<linearGradient id="paint70_linear_167_179" x1="1674.48" y1="1" x2="1674.48" y2="270.231" gradientUnits="userSpaceOnUse">
<stop stop-color="#00FF29"/>
<stop offset="1" stop-color="#F7DD43" stop-opacity="0"/>
</linearGradient>
<linearGradient id="paint71_linear_167_179" x1="1674.48" y1="1" x2="1674.48" y2="270.231" gradientUnits="userSpaceOnUse">
<stop stop-color="#00FF29"/>
<stop offset="1" stop-color="#F7DD43" stop-opacity="0"/>
</linearGradient>
<linearGradient id="paint72_linear_167_179" x1="1674.48" y1="1" x2="1674.48" y2="270.231" gradientUnits="userSpaceOnUse">
<stop stop-color="#00FF29"/>
<stop offset="1" stop-color="#F7DD43" stop-opacity="0"/>
</linearGradient>
<linearGradient id="paint73_linear_167_179" x1="1674.48" y1="1" x2="1674.48" y2="270.231" gradientUnits="userSpaceOnUse">
<stop stop-color="#00FF29"/>
<stop offset="1" stop-color="#F7DD43" stop-opacity="0"/>
</linearGradient>
<linearGradient id="paint74_linear_167_179" x1="1674.48" y1="1" x2="1674.48" y2="270.231" gradientUnits="userSpaceOnUse">
<stop stop-color="#00FF29"/>
<stop offset="1" stop-color="#F7DD43" stop-opacity="0"/>
</linearGradient>
<linearGradient id="paint75_linear_167_179" x1="1674.48" y1="1" x2="1674.48" y2="270.231" gradientUnits="userSpaceOnUse">
<stop stop-color="#00FF29"/>
<stop offset="1" stop-color="#F7DD43" stop-opacity="0"/>
</linearGradient>
<linearGradient id="paint76_linear_167_179" x1="1674.48" y1="1" x2="1674.48" y2="270.231" gradientUnits="userSpaceOnUse">
<stop stop-color="#00FF29"/>
<stop offset="1" stop-color="#F7DD43" stop-opacity="0"/>
</linearGradient>
<linearGradient id="paint77_linear_167_179" x1="1674.48" y1="1" x2="1674.48" y2="270.231" gradientUnits="userSpaceOnUse">
<stop stop-color="#00FF29"/>
<stop offset="1" stop-color="#F7DD43" stop-opacity="0"/>
</linearGradient>
<linearGradient id="paint78_linear_167_179" x1="1674.48" y1="1" x2="1674.48" y2="270.231" gradientUnits="userSpaceOnUse">
<stop stop-color="#00FF29"/>
<stop offset="1" stop-color="#F7DD43" stop-opacity="0"/>
</linearGradient>
<linearGradient id="paint79_linear_167_179" x1="1674.48" y1="1" x2="1674.48" y2="270.231" gradientUnits="userSpaceOnUse">
<stop stop-color="#00FF29"/>
<stop offset="1" stop-color="#F7DD43" stop-opacity="0"/>
</linearGradient>
<linearGradient id="paint80_linear_167_179" x1="1674.48" y1="1" x2="1674.48" y2="270.231" gradientUnits="userSpaceOnUse">
<stop stop-color="#00FF29"/>
<stop offset="1" stop-color="#F7DD43" stop-opacity="0"/>
</linearGradient>
<linearGradient id="paint81_linear_167_179" x1="1674.48" y1="1" x2="1674.48" y2="270.231" gradientUnits="userSpaceOnUse">
<stop stop-color="#00FF29"/>
<stop offset="1" stop-color="#F7DD43" stop-opacity="0"/>
</linearGradient>
<linearGradient id="paint82_linear_167_179" x1="1674.48" y1="1" x2="1674.48" y2="270.231" gradientUnits="userSpaceOnUse">
<stop stop-color="#00FF29"/>
<stop offset="1" stop-color="#F7DD43" stop-opacity="0"/>
</linearGradient>
<linearGradient id="paint83_linear_167_179" x1="1674.48" y1="1" x2="1674.48" y2="270.231" gradientUnits="userSpaceOnUse">
<stop stop-color="#00FF29"/>
<stop offset="1" stop-color="#F7DD43" stop-opacity="0"/>
</linearGradient>
<linearGradient id="paint84_linear_167_179" x1="1674.48" y1="1" x2="1674.48" y2="270.231" gradientUnits="userSpaceOnUse">
<stop stop-color="#00FF29"/>
<stop offset="1" stop-color="#F7DD43" stop-opacity="0"/>
</linearGradient>
<linearGradient id="paint85_linear_167_179" x1="1674.48" y1="1" x2="1674.48" y2="270.231" gradientUnits="userSpaceOnUse">
<stop stop-color="#00FF29"/>
<stop offset="1" stop-color="#F7DD43" stop-opacity="0"/>
</linearGradient>
<linearGradient id="paint86_linear_167_179" x1="1674.48" y1="1" x2="1674.48" y2="270.231" gradientUnits="userSpaceOnUse">
<stop stop-color="#00FF29"/>
<stop offset="1" stop-color="#F7DD43" stop-opacity="0"/>
</linearGradient>
<linearGradient id="paint87_linear_167_179" x1="1674.48" y1="1" x2="1674.48" y2="270.231" gradientUnits="userSpaceOnUse">
<stop stop-color="#00FF29"/>
<stop offset="1" stop-color="#F7DD43" stop-opacity="0"/>
</linearGradient>
<linearGradient id="paint88_linear_167_179" x1="1674.48" y1="1" x2="1674.48" y2="270.231" gradientUnits="userSpaceOnUse">
<stop stop-color="#00FF29"/>
<stop offset="1" stop-color="#F7DD43" stop-opacity="0"/>
</linearGradient>
<linearGradient id="paint89_linear_167_179" x1="1674.48" y1="1" x2="1674.48" y2="270.231" gradientUnits="userSpaceOnUse">
<stop stop-color="#00FF29"/>
<stop offset="1" stop-color="#F7DD43" stop-opacity="0"/>
</linearGradient>
<linearGradient id="paint90_linear_167_179" x1="1674.48" y1="1" x2="1674.48" y2="270.231" gradientUnits="userSpaceOnUse">
<stop stop-color="#00FF29"/>
<stop offset="1" stop-color="#F7DD43" stop-opacity="0"/>
</linearGradient>
<linearGradient id="paint91_linear_167_179" x1="1674.48" y1="1" x2="1674.48" y2="270.231" gradientUnits="userSpaceOnUse">
<stop stop-color="#00FF29"/>
<stop offset="1" stop-color="#F7DD43" stop-opacity="0"/>
</linearGradient>
<linearGradient id="paint92_linear_167_179" x1="1674.48" y1="1" x2="1674.48" y2="270.231" gradientUnits="userSpaceOnUse">
<stop stop-color="#00FF29"/>
<stop offset="1" stop-color="#F7DD43" stop-opacity="0"/>
</linearGradient>
<linearGradient id="paint93_linear_167_179" x1="1674.48" y1="1" x2="1674.48" y2="270.231" gradientUnits="userSpaceOnUse">
<stop stop-color="#00FF29"/>
<stop offset="1" stop-color="#F7DD43" stop-opacity="0"/>
</linearGradient>
<clipPath id="clip0_167_179">
<rect width="1728" height="1217" fill="white"/>
</clipPath>
</defs>
</svg>
